<?xml version="1.0" encoding="UTF-8" standalone="no"?>
<!-- Created with Inkscape (http://www.inkscape.org/) -->

<svg
   width="1600"
   height="2560"
   viewBox="0 0 423.33332 677.33333"
   version="1.1"
   id="svg1"
   inkscape:version="1.4.3 (0d15f75042, 2025-12-25)"
   sodipodi:docname="cover.svg"
   xml:space="preserve"
   inkscape:export-filename="cover.jpg"
   inkscape:export-xdpi="96"
   inkscape:export-ydpi="96"
   xmlns:inkscape="http://www.inkscape.org/namespaces/inkscape"
   xmlns:sodipodi="http://sodipodi.sourceforge.net/DTD/sodipodi-0.dtd"
   xmlns="http://www.w3.org/2000/svg"
   xmlns:svg="http://www.w3.org/2000/svg"><sodipodi:namedview
     id="namedview1"
     pagecolor="#191919"
     bordercolor="#666666"
     borderopacity="1.0"
     inkscape:showpageshadow="2"
     inkscape:pageopacity="0.0"
     inkscape:pagecheckerboard="0"
     inkscape:deskcolor="#d1d1d1"
     inkscape:document-units="mm"
     inkscape:zoom="0.3789018"
     inkscape:cx="884.13409"
     inkscape:cy="1244.3857"
     inkscape:window-width="2560"
     inkscape:window-height="1412"
     inkscape:window-x="0"
     inkscape:window-y="0"
     inkscape:window-maximized="1"
     inkscape:current-layer="layer1"
     showgrid="false"
     inkscape:export-bgcolor="#191919ff" /><defs
     id="defs1" /><g
     inkscape:label="Layer 1"
     inkscape:groupmode="layer"
     id="layer1"><g
       id="g2"
       transform="matrix(1.1274145,0,0,1.1274145,31.000556,253.53375)"><text
         xml:space="preserve"
         style="font-style:normal;font-variant:normal;font-weight:normal;font-stretch:normal;font-size:24.5929px;line-height:1.25;font-family:Raleway;-inkscape-font-specification:Raleway;text-align:center;text-anchor:middle;fill:#ffffff;fill-opacity:0.85098;stroke-width:1.15279"
         x="140.9044"
         y="325.97498"
         id="text1"><tspan
           sodipodi:role="line"
           id="tspan1"
           style="font-style:normal;font-variant:normal;font-weight:800;font-stretch:normal;font-family:Raleway;-inkscape-font-specification:'Raleway Ultra-Bold';fill:#ffffff;fill-opacity:0.85098;stroke-width:1.15279"
           x="140.9044"
           y="325.97498">coder.by(</tspan></text><g
         transform="matrix(0.60510175,0,0,0.60510175,137.74941,168.41794)"
         id="g1"
         style="fill:#e00073;fill-opacity:1"><path
           d="m 120.88872,275.83756 c -0.3544,-1.74196 -4.26401,-14.11291 -14.48044,-15.77415 -10.287693,-1.67184 -7.996191,-8.46899 -7.996191,-8.46899 0,0 1.096201,5.7017 7.493151,2.65792 -7.640381,0.44232 -13.420099,-13.41965 -3.05077,-21.17156 3.13005,-2.33996 2.30471,-4.41663 2.76669,-6.34777 0.44028,-1.83853 3.4651,-3.06628 4.97184,-1.20393 -1.16557,-0.97638 -3.4146,-0.45908 -3.7034,1.46985 -0.3742,2.49783 3.366,3.76042 6.30069,4.67064 3.91151,1.21364 8.29112,7.63813 1.92484,12.61968 2.57605,-8.74504 -10.19189,-8.19468 -9.50624,-0.83041 0.82959,8.91131 15.05851,8.88308 16.10799,19.56853 0.101,1.02136 -0.27558,2.39066 0.29022,3.56373 -0.17271,-1.01122 -0.18499,-2.0855 0.63988,-3.5408 2.08481,-3.67662 4.77034,-5.91647 2.60908,-12.07548 -0.45254,-1.29125 -0.42753,-1.89542 -0.006,-2.91766 -0.3223,1.16159 -0.12741,2.36641 1.36329,3.01909 7.06799,3.09274 13.84764,-2.9988 11.51509,-10.45745 -2.81531,-9.00435 -13.41964,-3.80187 -8.35577,0.10011 -2.88609,-1.40503 -7.30959,1.72034 -3.52739,5.56498 0.18357,0.18654 0.87819,0.48951 1.53695,0.13098 -0.59694,0.40131 -1.04429,0.2721 -1.6771,0.0392 -10.26219,-3.77452 -4.27531,-17.20123 6.77732,-16.8599 3.90111,0.11996 5.77782,1.20173 7.24823,2.16664 2.82097,1.85088 5.50838,0.48863 5.34652,-0.85422 -0.0633,-0.527 -0.68569,-1.24362 -1.5771,-0.73162 0.62572,-0.56316 2.09519,0.026 2.23676,0.9799 0.13826,0.93448 -0.10617,1.83942 -1.00088,2.53532 -1.04052,0.80967 -1.2826,1.54923 -0.68849,2.83563 0.68802,1.48838 2.72895,6.77157 0.61723,12.63203 -3.57174,9.91281 -13.49795,7.02073 -15.55775,14.18435 1.90927,-2.48989 4.5745,-0.082 6.66215,-4.0259 -0.44452,10.1289 -12.17101,5.64613 -15.28077,16.52121"
           style="fill:#e00073;fill-opacity:1;fill-rule:nonzero;stroke:none;stroke-width:0.456184"
           id="path1" /></g><text
         xml:space="preserve"
         style="font-style:normal;font-variant:normal;font-weight:normal;font-stretch:normal;font-size:24.5929px;line-height:1.25;font-family:Raleway;-inkscape-font-specification:Raleway;text-align:center;text-anchor:middle;fill:#ffffff;fill-opacity:0.85098;stroke-width:1.15279"
         x="230.76974"
         y="325.97498"
         id="text2"><tspan
           sodipodi:role="line"
           id="tspan2"
           style="font-style:normal;font-variant:normal;font-weight:800;font-stretch:normal;font-family:Raleway;-inkscape-font-specification:'Raleway Ultra-Bold';fill:#ffffff;fill-opacity:0.85098;stroke-width:1.15279"
           x="230.76974"
           y="325.97498">)</tspan></text></g><text
       xml:space="preserve"
       style="font-style:normal;font-variant:normal;font-weight:900;font-stretch:normal;font-size:48.1316px;line-height:1.25;font-family:Raleway;-inkscape-font-specification:'Raleway Heavy';text-align:center;text-anchor:middle;fill:#e00073;fill-opacity:1;stroke-width:2.25616"
       x="211.69072"
       y="134.94255"
       id="text3"><tspan
         sodipodi:role="line"
         id="tspan3"
         style="font-style:normal;font-variant:normal;font-weight:900;font-stretch:normal;font-family:Raleway;-inkscape-font-specification:'Raleway Heavy';fill:#e00073;fill-opacity:1;stroke-width:2.25616"
         x="211.69072"
         y="134.94255">Gut Feelings</tspan></text><text
       xml:space="preserve"
       style="font-style:normal;font-variant:normal;font-weight:100;font-stretch:normal;font-size:32.6064px;line-height:1.25;font-family:Raleway;-inkscape-font-specification:'Raleway Thin';text-align:center;text-anchor:middle;fill:#ffffff;fill-opacity:0.85098;stroke-width:1.52842"
       x="211.19388"
       y="187.49292"
       id="text4"><tspan
         sodipodi:role="line"
         id="tspan4"
         style="font-style:normal;font-variant:normal;font-weight:100;font-stretch:normal;font-family:Raleway;-inkscape-font-specification:'Raleway Thin';fill:#ffffff;fill-opacity:0.85098;stroke-width:1.52842"
         x="211.19388"
         y="187.49292">First Principles</tspan><tspan
         sodipodi:role="line"
         style="font-style:normal;font-variant:normal;font-weight:100;font-stretch:normal;font-family:Raleway;-inkscape-font-specification:'Raleway Thin';fill:#ffffff;fill-opacity:0.85098;stroke-width:1.52842"
         x="211.19388"
         y="228.25092"
         id="tspan6">of a Software Crafter</tspan></text><text
       xml:space="preserve"
       style="font-style:normal;font-variant:normal;font-weight:100;font-stretch:normal;font-size:16.5924px;line-height:1.25;font-family:Raleway;-inkscape-font-specification:'Raleway Thin';text-align:center;text-anchor:middle;fill:#ffffff;fill-opacity:0.85098;stroke-width:0.777765"
       x="211.1689"
       y="310.05545"
       id="text8"><tspan
         sodipodi:role="line"
         style="font-style:normal;font-variant:normal;font-weight:bold;font-stretch:normal;font-family:Raleway;-inkscape-font-specification:'Raleway Bold';fill:#ffffff;fill-opacity:0.85098;stroke-width:0.777765"
         x="211.1689"
         y="310.05545"
         id="tspan8">Markus Tacker</tspan></text></g></svg>
